<svg width="133" height="28" viewBox="0 0 133 28" fill="none" xmlns="http://www.w3.org/2000/svg">
<g clip-path="url(#clip0)">
<path d="M25.5788 15.6952C25.5788 14.5048 25.446 13.6672 25.1363 13.1822C24.8265 12.6973 24.2954 12.4327 23.5431 12.4327C23.3218 12.4327 23.0563 12.4327 22.8351 12.4768C22.5695 12.5209 22.3483 12.5209 22.127 12.565V22.661H18.4097V10.0079C18.7194 9.91974 19.0735 9.83156 19.516 9.74339C19.9586 9.65521 20.4011 9.56704 20.8436 9.47886C21.3304 9.39069 21.8172 9.3466 22.304 9.30251C22.7908 9.25842 23.2776 9.25842 23.7644 9.25842C24.6937 9.25842 25.4903 9.39069 26.0656 9.61112C26.6409 9.83156 27.1277 10.1402 27.526 10.4488C28.057 10.052 28.6766 9.78747 29.3404 9.56704C30.0484 9.3466 30.668 9.25842 31.2433 9.25842C32.3054 9.25842 33.1462 9.39069 33.81 9.6993C34.4738 10.0079 35.0049 10.4047 35.4032 10.9337C35.8014 11.4628 36.067 12.08 36.244 12.8295C36.3767 13.579 36.4653 14.3726 36.4653 15.2543V22.617H32.7479V15.6952C32.7479 14.5048 32.6152 13.6672 32.3054 13.1822C31.9956 12.6973 31.4646 12.4327 30.7122 12.4327C30.491 12.4327 30.2255 12.4768 29.8714 12.565C29.5174 12.6532 29.2076 12.7854 28.9863 12.9177C29.1191 13.3145 29.1634 13.7113 29.2076 14.1081C29.2519 14.5489 29.2519 14.9898 29.2519 15.4748V22.617H25.5345V15.6952H25.5788Z" fill="#065BAA"/>
<path d="M43.3245 9.21425C44.4309 9.21425 45.3159 9.34652 46.0683 9.56695C46.8206 9.83148 47.3959 10.1842 47.8384 10.6251C48.281 11.11 48.5907 11.6391 48.7678 12.3004C48.9448 12.9617 49.0333 13.7112 49.0333 14.5048V22.2201C48.5022 22.3523 47.7499 22.4846 46.8206 22.6169C45.8913 22.7932 44.7406 22.8373 43.3688 22.8373C42.528 22.8373 41.7314 22.7491 41.0676 22.6169C40.3595 22.4846 39.7842 22.2201 39.2974 21.8674C38.8106 21.5147 38.4123 21.0738 38.1468 20.5448C37.8813 20.0157 37.7485 19.3103 37.7485 18.5167C37.7485 17.7672 37.8813 17.1059 38.1911 16.5769C38.5009 16.0478 38.8991 15.6069 39.4302 15.2983C39.9612 14.9897 40.5365 14.7693 41.2003 14.637C41.8641 14.5048 42.5722 14.4166 43.2803 14.4166C43.7671 14.4166 44.2096 14.4166 44.5636 14.4607C44.9177 14.5048 45.2274 14.5488 45.493 14.637V14.2843C45.493 13.6671 45.316 13.138 44.9177 12.7853C44.5194 12.3886 43.8556 12.2122 42.9262 12.2122C42.3067 12.2122 41.6871 12.2563 41.0676 12.3445C40.448 12.4326 39.917 12.5649 39.4744 12.7413L38.9876 9.7433C39.2089 9.65513 39.4744 9.61104 39.7842 9.52287C40.094 9.43469 40.448 9.3906 40.8463 9.30243C41.2446 9.25834 41.6429 9.21425 42.0412 9.17017C42.4837 9.21425 42.9262 9.21425 43.3245 9.21425ZM43.6343 20.0157C43.9883 20.0157 44.3424 20.0157 44.6964 19.9716C45.0504 19.9716 45.316 19.9275 45.493 19.8834V17.0618C45.3602 17.0177 45.1389 16.9737 44.8292 16.9737C44.5194 16.9296 44.2539 16.9296 43.9883 16.9296C43.6343 16.9296 43.3245 16.9296 43.0147 16.9737C42.705 17.0177 42.4394 17.1059 42.2182 17.1941C41.9969 17.3264 41.8199 17.4586 41.6871 17.6791C41.5544 17.8995 41.4659 18.1199 41.4659 18.4286C41.4659 19.0017 41.6429 19.3985 42.0412 19.6189C42.4394 19.9275 42.9705 20.0157 43.6343 20.0157Z" fill="#065BAA"/>
<path d="M81.0732 9.21425C82.1795 9.21425 83.0646 9.34652 83.8169 9.56695C84.5692 9.83148 85.1446 10.1842 85.5871 10.6251C86.0296 11.11 86.3394 11.6391 86.5164 12.3004C86.6934 12.9617 86.782 13.7112 86.782 14.5048V22.2201C86.2509 22.3523 85.4986 22.4846 84.5693 22.6169C83.6399 22.7932 82.4893 22.8373 81.1174 22.8373C80.2766 22.8373 79.48 22.7491 78.8162 22.6169C78.1082 22.4846 77.5329 22.2201 77.0461 21.8674C76.5593 21.5147 76.161 21.0738 75.8955 20.5448C75.63 20.0157 75.4972 19.3103 75.4972 18.5167C75.4972 17.7672 75.63 17.1059 75.9397 16.5769C76.2495 16.0478 76.6478 15.6069 77.1788 15.2983C77.7099 14.9897 78.2852 14.7693 78.949 14.637C79.6128 14.5048 80.3209 14.4166 81.0289 14.4166C81.5157 14.4166 81.9583 14.4166 82.3123 14.4607C82.6663 14.5048 82.9761 14.5488 83.2416 14.637V14.2843C83.2416 13.6671 83.0646 13.138 82.6663 12.7853C82.268 12.3886 81.6042 12.2122 80.6749 12.2122C80.0553 12.2122 79.4358 12.2563 78.8162 12.3445C78.1967 12.4326 77.6656 12.5649 77.2231 12.7413L76.7363 9.7433C76.9576 9.65513 77.2231 9.61104 77.5329 9.52287C77.8426 9.43469 78.1967 9.3906 78.595 9.30243C78.9933 9.25834 79.3915 9.21425 79.7898 9.17017C80.1881 9.21425 80.6306 9.21425 81.0732 9.21425ZM81.3387 20.0157C81.6927 20.0157 82.0468 20.0157 82.4008 19.9716C82.7548 19.9716 83.0204 19.9275 83.1974 19.8834V17.0618C83.0646 17.0177 82.8433 16.9737 82.5336 16.9737C82.2238 16.9296 81.9583 16.9296 81.6927 16.9296C81.3387 16.9296 81.0289 16.9296 80.7192 16.9737C80.4094 17.0177 80.1439 17.1059 79.9226 17.1941C79.7013 17.3264 79.5243 17.4586 79.3915 17.6791C79.2588 17.8995 79.1703 18.1199 79.1703 18.4286C79.1703 19.0017 79.3473 19.3985 79.7456 19.6189C80.1439 19.9275 80.6749 20.0157 81.3387 20.0157Z" fill="#50B848"/>
<path d="M96.0751 15.6952C96.0751 14.5048 95.9424 13.6672 95.6326 13.1822C95.3228 12.6973 94.7918 12.4327 94.0395 12.4327C93.8182 12.4327 93.5527 12.4327 93.3314 12.4768C93.0659 12.5209 92.8446 12.5209 92.6233 12.565V22.661H88.906V10.0079C89.2158 9.91974 89.5698 9.83156 90.0124 9.74339C90.4549 9.65521 90.8974 9.56704 91.34 9.47886C91.8268 9.39069 92.3136 9.3466 92.8003 9.30251C93.2871 9.25842 93.7739 9.25842 94.2607 9.25842C95.1901 9.25842 95.9866 9.39069 96.5619 9.61112C97.1372 9.83156 97.624 10.1402 98.0223 10.4488C98.5533 10.052 99.1729 9.78747 99.8367 9.56704C100.545 9.3466 101.164 9.25842 101.74 9.25842C102.802 9.25842 103.643 9.39069 104.306 9.6993C104.97 10.0079 105.501 10.4047 105.899 10.9337C106.298 11.4628 106.563 12.08 106.74 12.8295C106.873 13.579 106.962 14.3726 106.962 15.2543V22.6169H103.244V15.6952C103.244 14.5048 103.111 13.6672 102.802 13.1822C102.492 12.6973 101.961 12.4327 101.209 12.4327C100.987 12.4327 100.722 12.4768 100.368 12.565C100.014 12.6532 99.7039 12.7854 99.4827 12.9177C99.6154 13.3145 99.6597 13.7113 99.7039 14.1081C99.7482 14.5489 99.7482 14.9898 99.7482 15.4748V22.6169H96.0309V15.6952H96.0751Z" fill="#50B848"/>
<path d="M113.821 9.21425C114.927 9.21425 115.812 9.34652 116.565 9.56695C117.317 9.83148 117.892 10.1842 118.335 10.6251C118.777 11.11 119.087 11.6391 119.264 12.3004C119.441 12.9617 119.53 13.7112 119.53 14.5048V22.2201C118.999 22.3523 118.246 22.4846 117.317 22.6169C116.388 22.7932 115.237 22.8373 113.865 22.8373C113.024 22.8373 112.228 22.7491 111.564 22.6169C110.856 22.4846 110.281 22.2201 109.794 21.8674C109.307 21.5147 108.909 21.0738 108.643 20.5448C108.378 20.0157 108.245 19.3103 108.245 18.5167C108.245 17.7672 108.378 17.1059 108.688 16.5769C108.997 16.0478 109.396 15.6069 109.927 15.2983C110.458 14.9897 111.033 14.7693 111.697 14.637C112.361 14.5048 113.069 14.4166 113.777 14.4166C114.264 14.4166 114.706 14.4166 115.06 14.4607C115.414 14.5048 115.724 14.5488 115.989 14.637V14.2843C115.989 13.6671 115.812 13.138 115.414 12.7853C115.016 12.3886 114.352 12.2122 113.423 12.2122C112.803 12.2122 112.184 12.2563 111.564 12.3445C110.944 12.4326 110.413 12.5649 109.971 12.7413L109.484 9.7433C109.705 9.65513 109.971 9.61104 110.281 9.52287C110.59 9.43469 110.944 9.3906 111.343 9.30243C111.741 9.25834 112.139 9.21425 112.538 9.17017C112.98 9.21425 113.423 9.21425 113.821 9.21425ZM114.131 20.0157C114.485 20.0157 114.839 20.0157 115.193 19.9716C115.547 19.9716 115.812 19.9275 115.989 19.8834V17.0618C115.857 17.0177 115.635 16.9737 115.326 16.9737C115.016 16.9296 114.75 16.9296 114.485 16.9296C114.131 16.9296 113.821 16.9296 113.511 16.9737C113.201 17.0177 112.936 17.1059 112.715 17.1941C112.493 17.3264 112.316 17.4586 112.184 17.6791C112.051 17.8995 111.962 18.1199 111.962 18.4286C111.962 19.0017 112.139 19.3985 112.538 19.6189C112.936 19.9275 113.467 20.0157 114.131 20.0157Z" fill="#50B848"/>
<path d="M121.654 10.0079C122.273 9.83156 123.114 9.65521 124.088 9.47886C125.106 9.30251 126.124 9.25842 127.23 9.25842C128.336 9.25842 129.266 9.39069 130.018 9.6993C130.77 10.0079 131.346 10.4047 131.788 10.9337C132.231 11.4628 132.54 12.08 132.717 12.8295C132.894 13.579 132.983 14.3726 132.983 15.2543V22.617H129.266V15.6952C129.266 14.5048 129.089 13.6672 128.779 13.1822C128.469 12.6973 127.894 12.4327 127.009 12.4327C126.743 12.4327 126.478 12.4327 126.168 12.4768C125.858 12.5209 125.593 12.5209 125.371 12.565V22.661H121.654V10.0079Z" fill="#50B848"/>
<path d="M72.0452 9.52297C71.8682 10.1843 71.6912 10.8897 71.4699 11.6392C71.2487 12.3887 71.0274 13.1381 70.8061 13.9317C70.5849 14.6812 70.3636 15.4307 70.0981 16.1802C69.8768 16.9297 69.6555 17.591 69.4343 18.1641C69.213 17.5469 68.9475 16.8856 68.6819 16.1802C68.4164 15.4307 68.1509 14.6812 67.9296 13.9317C67.6641 13.1822 67.4428 12.3887 67.2216 11.6392C67.0003 10.8897 66.779 10.1843 66.6463 9.52297H62.7077C63.46 12.08 64.2566 14.4167 65.0974 16.4447C65.9382 18.5168 66.779 20.3685 67.6199 21.9997C67.4871 22.3084 66.1595 25.174 65.1416 25.2622C63.991 25.3504 37.7485 25.2622 37.7485 25.2622L36.8634 28.1279C36.8634 28.1279 63.283 28.1279 65.5842 28.1279C67.8854 28.1279 69.4785 25.8354 70.4964 23.5869C70.4964 23.5869 70.7176 23.1901 70.8061 22.9697C71.7797 20.8976 72.6648 18.7814 73.4614 16.577C74.2579 14.3726 75.0545 12.036 75.8068 9.47888H72.0452V9.52297Z" fill="#50B848"/>
<path d="M51.1575 22.6168H54.8748V12.5208L51.1575 10.0078V22.6168Z" fill="#065BAA"/>
<path d="M62.2209 12.7854C62.0439 12.036 61.7341 11.4187 61.2916 10.8897C60.8491 10.3606 60.2738 9.96384 59.5214 9.65523C58.7691 9.34662 57.8398 9.21436 56.7335 9.21436C55.6271 9.21436 54.6093 9.30253 53.5914 9.43479C52.5736 9.61114 51.777 9.74341 51.1575 9.96384L54.8748 12.4768C55.0961 12.4327 55.3616 12.4327 55.6714 12.3887C55.9811 12.3446 56.2467 12.3446 56.5122 12.3446C57.3973 12.3446 57.9726 12.6091 58.2823 13.0941C58.5921 13.579 58.7691 14.4167 58.7691 15.6071V22.5288H62.4865V15.2103C62.4865 14.3285 62.398 13.5349 62.2209 12.7854Z" fill="#50B848"/>
<path d="M13.3204 22.7492C13.1434 22.132 12.9221 21.5589 12.7009 20.8975C12.4796 20.2803 12.2583 19.619 12.0371 19.0018H5.31047C5.0892 19.619 4.86793 20.2803 4.64666 20.8975C4.42539 21.5148 4.20412 22.132 4.0271 22.7492H0C0.663808 20.8975 1.28336 19.1781 1.85866 17.591C2.43396 16.0038 3.00926 14.5489 3.58457 13.1381C4.15987 11.7273 4.69091 10.4488 5.22196 9.17025C5.75301 7.9358 6.32831 6.70135 6.90361 5.51099H10.5767C11.152 6.70135 11.683 7.9358 12.2583 9.17025C12.7894 10.4047 13.3647 11.7273 13.94 13.1381C14.5153 14.5489 15.0906 16.0038 15.6659 17.591C16.2412 19.1781 16.8607 20.8975 17.5245 22.7492H13.3204ZM8.67376 9.43478C8.58526 9.6993 8.45249 10.0079 8.27548 10.4488C8.09846 10.8897 7.92145 11.3746 7.70018 11.9478C7.47891 12.5209 7.25764 13.1381 6.99212 13.7994C6.72659 14.4608 6.46107 15.2102 6.19554 15.9156H11.152C10.8865 15.1662 10.6209 14.4608 10.3997 13.7554C10.1341 13.094 9.91287 12.4327 9.6916 11.9037C9.47033 11.3305 9.29332 10.8456 9.1163 10.4047C8.89503 10.0079 8.76227 9.6993 8.67376 9.43478Z" fill="#065BAA"/>
<path d="M60.6277 6.39269L61.026 7.0981C61.0702 7.18627 61.2915 7.27445 61.4685 7.27445H65.9381C66.1152 7.27445 66.2922 7.18627 66.3807 7.0981L66.8675 6.39269C66.8675 2.86569 68.1508 0 69.6997 0C64.699 0 60.6277 2.86569 60.6277 6.39269Z" fill="#50B848"/>
<path d="M69.9211 0C69.8326 0 69.7441 0 69.6998 0C71.293 0 72.5321 2.86569 72.5321 6.39269L72.9304 7.0981C72.9746 7.18627 73.1959 7.27445 73.3729 7.27445H77.8425C78.0196 7.27445 78.2408 7.18627 78.2851 7.0981L78.7719 6.39269C78.7276 2.90978 74.8333 0.0881751 69.9211 0Z" fill="#50B848"/>
<path d="M69.6999 0C69.6113 0 69.5228 0 69.4786 0C62.8405 0.0440876 57.0875 2.64525 54.3438 6.39269L54.742 7.0981C54.7863 7.18627 55.0076 7.27445 55.1846 7.27445H59.7427C59.9197 7.27445 60.141 7.18627 60.1853 7.0981L60.6721 6.39269C60.6278 2.86569 64.6992 0 69.6999 0C68.1067 0 66.8676 2.86569 66.8676 6.39269L67.2216 7.0981C67.2659 7.18627 67.4429 7.27445 67.6199 7.27445H71.6913C71.8683 7.27445 72.0453 7.18627 72.0896 7.0981L72.5321 6.39269C72.5321 2.86569 71.2487 0 69.6999 0Z" fill="#065BAA"/>
<path d="M69.9211 0C74.8333 0.0881751 78.7277 2.90978 78.7277 6.39269L79.126 7.0981C79.1702 7.18627 79.3915 7.27445 79.5685 7.27445H84.1267C84.3037 7.27445 84.5249 7.18627 84.5692 7.0981L85.056 6.39269C82.3122 2.64525 76.5592 0.0440876 69.9211 0Z" fill="#065BAA"/>
</g>
<defs>
<clipPath id="clip0">
<rect width="133" height="28" fill="white"/>
</clipPath>
</defs>
</svg>
