<svg xmlns="http://www.w3.org/2000/svg" viewBox="1.2 238.9 957.6 82.3" width="408.636" height="40">
                                <path fill="#003087" d="M8,240.6c5.6,0,11.3,0,16.9,0c13.1,0,26.1,0,39.2,0c14.8,0,29.8,0,44.6,0c10.9,0,21.9,0,33,0 c2.3,0,4.6,0,6.7,0c1.4,0,2.3,0.8,2.1,2.3c-0.2,1.7-0.6,3.3-0.8,5c-1.7,11.6-3.4,23.3-5.1,34.8c-0.1,0.5-0.1,0.9,0,1.4 c0.2,1.1,1.5-1.6,1.6-2.1c0.9-2.3,1.9-4.4,2.9-6.7c2.4-5.6,4.8-11.2,7.1-16.8c1.8-4.2,3.6-8.6,5.5-12.8c0.6-1.3,1.1-2.6,1.7-3.9 c0.3-0.8,0.7-1.3,1.5-1.6c1.9-0.9,4.9-0.3,7-0.3c7.3,0.1,14.6,0.1,21.9,0.2c1.9,0,3.9,0,5.8,0c2.4,0,1,4.8,0.8,6 c-1.6,10.4-3.2,20.8-4.8,31.1c-0.2,1.3-0.3,2.5-0.6,3.6c-0.1,0.7-0.5,1.7,0,2.4c0.1,0.1,0.7-1,0.7-1.1c0.3-0.9,0.7-1.7,1.1-2.6 c0.8-1.9,1.6-3.8,2.4-5.7c1.9-4.4,3.9-8.9,5.8-13.3c1.9-4.4,4-8.9,5.8-13.3c0.7-1.5,1.3-3,1.9-4.4c0.3-0.9,0.7-1.6,1.6-2.2 c1.8-1.1,5-0.6,7.1-0.7c11.2-0.1,22.5-0.2,33.6-0.2c0.3,0,0.8-0.1,1.3,0c1.5,0.2,2.7,2.5,3.3,3.5c1.4,2.6,2.7,5.2,4.1,7.9 c0.3,0.6,0.5,1.3,1.1,1.6c1.3,0.8,3.1,1,4.6,1s3,0,4.4,0c12.3,0,24.7,0,37.1,0c2.1,0,3.9,0.3,5.4,1.8c1.1,1.3,2.4,2.4,3.5,3.6 c0.5,0.5,1.7,1.5,1.1,2.3c-0.6,0.9-2.7,0.5-3.6,0.5c-1.6,0-3.3,0-4.9-0.1c-1.5,0-3,0-4.4,0c-11.1,0-22.1,0-33.3,0 c-0.7,0-1.3-0.5-2.1-0.2c-0.6,0.5,0.1,1.3,0.5,1.7c1,1.6,2.1,3.3,3.2,4.9c1.4,2.2,2.7,4.2,4.2,6.4c2.4,3.6,4.8,7.3,7.2,10.9 c3,4.4,5.8,8.9,8.8,13.3c1.6,2.4,3.2,4.7,5.1,7c1.7,2.1,3.5,3.9,5.6,5.6c1.7,1.4,3.5,2.6,5.7,3c-2.7-2.7-5.5-6-6.7-9.7 c-0.9-2.7-1.6-5.7-1.1-8.6c0.3-2.3,1.1-4.4,2.2-6.4c2.5-4.7,7.2-8.4,12.3-9.7c4.7-1.1,9.9-0.3,14.1,2.1c5.2,3,9,7.5,9.9,13.6 c0.6,3.8,0.1,7.8-1.6,11.3c-1.3,2.6-3.2,5-5.5,6.8c-1.9,1.6-4.1,2.7-6.5,3.5c-0.9,0.3-1.8,0.7-2.9,0.7c-12.2,0-24.4-0.1-36.7-0.1 c-4.1,0-8.2,0.2-12.2-0.5c-8.6-1.5-16.5-5.9-21.7-13c-2.5-3.5-4.6-7.3-7-10.8c-3.9-6.2-7.9-12.2-11.7-18.4 c-5.2-8.2-10.4-16.3-15.6-24.5c-0.3-0.5-1.1-2.1-1.7-0.9c-0.7,1.3-1.4,2.6-2.1,3.9c-0.9,1.7-1.7,3.3-2.5,5c-2.2,4.7-4.4,9.4-6.6,14 c-4.4,9.6-9,19.2-13.5,28.7c-2.2,4.7-4.3,9.5-6.5,14.1c-0.3,0.9-0.9,1.6-1.8,2.1c-1,0.6-2.2,0.5-3.2,0.5c-3.3,0-6.5,0-9.8,0 c-4.8,0-9.5,0-14.3,0c-2.9,0-5.7,0-8.4,0c-2.2,0-1.3-2.5-1-4c1.8-10.9,3.5-21.8,5.4-32.7c0.1-0.7,0.1-2.1-0.7-0.9 c-1,1.4-1.6,3.1-2.3,4.7c-1,2.2-1.9,4.4-3.1,6.6c-2.5,5-5,10-7.5,15.1c-1,2.1-2.1,4-3,6c-0.7,1.4-1.4,2.7-2.1,4.1 c-0.5,1-1.6,1.1-2.6,1.1c-5.8,0-11.7,0-17.6,0c-2.6,0-5.2,0-7.9,0c-2.2,0-1.8-2.4-1.7-4c0.8-6.5,1.5-12.9,2.3-19.4 c1-9.2,2.1-18.6,3-27.8c0.6-5.2,1-10.6,1.6-15.8c0.1-0.6,0.5-1.7,0-2.3c-0.6-0.7-1.7-0.6-2.5-0.6c-2.9,0-5.8,0-8.7,0 c-11.1,0-22,0-33.1,0c-8.6,0-17.2,0-25.8,0c-10.9,0-21.9,0-32.8,0c-2.6,0-5.1,0-7.8,0c-1.1,0-3.9,0-2.1-1.8"></path>
                                <path fill="#003087" d="M511.8,242.4c0.9-2.5,3.4-3.5,5.9-3.5c3.2,0,6.4,0,9.6,0c2.4,0,4.8,0,7.2,0c2.9,0,1.1,4.4,0.7,5.9 c-3,9.1-5.8,18.4-8.8,27.5c-3.6,11.5-7.3,22.9-10.9,34.4c-0.7,2.2-1.4,4.3-2.1,6.6c-0.5,1.4-0.8,2.4-1.8,3.4 c-2.1,2.1-4.9,1.6-7.5,1.6c-3.5,0-7.1,0-10.5,0c-1.3,0-4.1,0.5-4.8-0.8c-0.6-0.9,0-2.2,0.2-3.2c0.5-1.4,0.9-2.9,1.4-4.2 c1.5-4.8,3.1-9.6,4.6-14.4c3.2-10,6.4-20.1,9.6-30C506.6,257.9,509.2,250.2,511.8,242.4z"></path>
                                <path fill="#003087" d="M541.5,252.6c0.9-2.6,1.7-5.4,2.6-8c0.7-2.2,1.1-4.6,3.6-5.5c2.1-0.8,4.8-0.3,7-0.3c3.6,0,7.3,0,10.8,0 c9.1,0,18.4,0,27.5,0c3.3,0,6.6,0,9.9,0c1.9,0,5,0.3,4.3,3.1c-1.3,5-2.5,10.1-3.6,15.2c-0.2,1-0.3,1.9-1.1,2.7 c-1,1-2.3,1.1-3.5,1.1c-3.3,0-6.5-0.1-9.8-0.1c-0.9,0-1.7,0-2.6,0.1c-2.5,0.5-4.2,2.3-4.9,4.7c-0.7,2.2-1.3,4.4-1.9,6.6 c-2.7,9.6-5.6,19.3-8.2,28.8c-0.7,2.3-1.3,4.7-1.9,7c-0.5,1.7-0.9,3.3-1.4,5c-0.2,0.9-0.5,2.1-0.9,3c-1.6,3-5.6,2.3-8.4,2.3 c-3,0-5.8,0-8.8,0c-2.2,0-4.4,0.1-6.6,0c-3.4-0.1-1.8-3.8-1.3-5.7c1.7-5.4,3.4-10.7,5.2-16.2c3.1-9.6,6.3-19.2,9.4-28.7 c0.2-0.8,0.6-1.6,0.8-2.4c0.2-0.9,0.5-2.3-0.1-3.2c-0.5-0.8-1.6-1-2.4-1.3c-2.2-0.3-4.6-0.1-6.7-0.1s-4.6,0.2-6.6-0.1 c-2.2-0.3-2.2-2.2-1.6-3.9C540.5,255.5,541.1,254.1,541.5,252.6z"></path>
                                <g>
                                    <path fill="#003087" d="M658.4,315.5c-0.9-9.8-1.8-19.5-2.7-29.3c-1.1-11.6-2.2-23.3-3.3-34.8c-0.3-3.2-0.6-6.4-0.9-9.6 c-0.5-3.1-3.5-3.1-3.5-3.1h-19.8c-3.5-0.1-5.1,2.7-5.1,2.7c-5.1,9.4-10.3,18.7-15.4,28.1c-4.6,8.3-9.1,16.6-13.7,25 c-3.9,7-7.6,13.9-11.4,21c-0.9,2.3,1.6,3,1.6,3h16.3c6,0.2,8.2-2.6,8.2-2.6l1.7-3.1c1.6-3.4,5.5-3.4,5.5-3.4l17.4,0.3 c3.3,0.6,3.5,3.1,3.5,3.1l0.2,2.7c0.2,3.3,3.1,3,3.1,3h15.1C659.1,318.6,658.4,315.5,658.4,315.5z M634,293.4h-14.7 c-1.6-0.1,0.8-4.2,1.1-4.8c1.5-3.2,3.1-6.3,4.6-9.5c2.3-4.6,4.4-9.1,6.7-13.8c0.3-0.7,0.7-1.3,0.9-1.9c0,0,0.3-0.5,0.7-0.3 c0,0,0.2-0.2,0.2,1.5c0.5,9,0.9,18.1,1.3,27.1C634.9,291.6,635.2,293.5,634,293.4z"></path>
                                </g>
                                <path fill="#003087" d="M693.2,241.3c0.9-1.1,2.6-2.4,4.2-2.4c1.5,0,3,0,4.4,0c1.7,0,3.4,0,5.1,0c6.4,0,12.9,0,19.3-0.1 c4.4,0,8.9,0,13.3,0c3.3,0,6.6,0,9.9,0c1.6,0,3.3-0.2,4.6,0.9c1.3,1.1,0.7,2.6,0.3,4c-0.3,1.3-0.6,2.4-0.9,3.6 c-0.8,2.9-1.5,5.7-2.3,8.7c-0.7,2.5-1.1,4.7-4.2,4.9c-2.7,0.2-5.6,0-8.3,0c-2.7,0-6.3-0.6-8.3,1.7c-1.9,2.3-2.4,5.7-3.1,8.6 c-1.4,5-2.6,9.9-4,14.9c-1.3,4.9-2.6,9.7-3.9,14.6c-1.3,4.8-2.3,9.7-3.9,14.4c-0.6,1.6-2.3,3.3-4,3.3c-0.9,0-1.8,0-2.7,0 c-3.4,0-7,0-10.4,0c-2.6,0-5.2,0-8,0c-3,0-0.9-4.3-0.5-5.7c3.1-9.5,6.2-18.8,9.2-28.3c1.6-5,3.3-9.9,4.9-14.9 c0.7-2.2,3.2-7.1,0-8.1c-1.3-0.5-2.6-0.3-4-0.3c-1.8,0-3.6,0-5.5,0c-1.8,0-4,0.3-5.8-0.1c-2.6-0.7-1-3.9-0.5-5.6 c0.9-2.7,1.8-5.4,2.6-8.1C691.4,245.2,691.8,242.8,693.2,241.3z"></path>
                                <path fill="#003087" d="M840,238.9c2.6,0,5.4,0,8,0c1.5,0,3,0,4.6,0c0.7,0,1.3,0,1.9,0.2c1.6,0.6,1.9,1.9,1.7,3.4 c-0.2,1.6-0.5,3.1-0.7,4.7c-0.3,2.5-0.8,5.1-1.3,7.6c-1.6,9.7-3.2,19.4-4.7,29.1c-0.5,2.9-0.9,5.7-1.4,8.4c-0.7,4.1,1,8.7,5.8,8.7 c5,0,9.7-3.9,10.5-8.8c0.5-2.5,0.9-5.1,1.4-7.6c1.9-10.7,3.8-21.4,5.7-32.2c0.3-1.8,0.7-3.5,0.9-5.4c0.3-2.1,0.3-5,1.6-6.8 c1.6-2.2,5.4-1.5,7.6-1.5c3,0,6,0,9,0c1.9,0,3.1,1.8,2.9,3.6c-0.2,1.7-0.7,3.4-1,5.1c-0.5,2.4-0.9,4.8-1.5,7.3 c-0.9,4.9-1.9,9.7-2.9,14.6c-1.9,9.7-3.5,19.4-5.9,29c-0.7,2.7-1.4,5.5-2.7,8c-2.1,3.8-5,7.1-8.7,9.2c-2.7,1.6-5.8,2.4-8.9,3.1 c-5.4,1.1-11.6,1.7-17,0.5c-3.1-0.7-6.2-2.1-8.9-3.8c-5-3.1-8.6-7.9-10.1-13.5c-1-4-0.8-7.6,0-11.6c0.7-3.8,1.5-7.5,2.2-11.3 c2.2-10.7,4.3-21.3,6.4-32C835.4,243.9,835.7,238.9,840,238.9z"></path>
                                <g>
                                    <path fill="#003087" d="M958.6,316.4c-2.9-3.8-5.7-7.5-8.6-11.3c-2.1-2.7-4.2-5.5-6.3-8.2c-1-1.4-2.1-2.7-3.1-4.1 c-1.1-1.5-2.1-3.1-1.3-4.9c0.2-0.5,0.8-0.9,1.1-1.3c0.9-0.8,1.8-1.6,2.7-2.4c1.4-1.1,2.4-2.6,3.4-4.1c1.8-2.5,3.3-5,4.4-7.8 c1.8-4.6,3.2-9.2,2.9-14.3c-0.2-3.5-1.3-6.7-3.1-9.8c-6.4-9.2-16.4-9.6-16.4-9.6c-8.2,0-16.4,0-24.7,0c-3.4,0-4.7,3.2-4.7,3.2 c-0.7,1.5-0.8,3.4-1,5.1c-0.1,0.9-0.2,1.8-0.5,2.7c-0.5,2.9-1,5.7-1.5,8.4c-0.9,5.2-1.9,10.4-3,15.6c-1.8,9.2-3.9,18.5-5.9,27.7 c-1,4.4-1.9,9-3,13.5c-0.2,2.1,0.5,3.2,2.5,3.2h13.6c3.2-0.2,3.8-2.9,3.8-2.9c1-3.8,2.1-7.5,3-11.2c0.3-1.3,0.7-2.6,1-3.9 c0.3-1,0.8-2.2,1.1-3.2c0.2-0.7,0.7-3.2,1.7-3c1.4,0.2,3.9,3.4,3.9,3.4c2.4,3.6,4.8,7.3,7.2,10.9c1.4,2.2,2.7,4.2,4.2,6.3 c1.4,1.9,3.5,3.6,6,3.4h19C959.4,318.3,958.6,316.4,958.6,316.4z M935,265.9c-0.8,3.4-3.6,5.6-6.8,6.5c-0.7,0.2-7.5,1.3-7-0.3 c0.5-2.2,0.8-4.4,1.3-6.6c0.3-1.7,0.7-3.4,1-5.1c0.1-0.7,0.2-2.9,1.4-2.7c2.1,0,4.4,0.1,6.3,1C933.7,259.9,935.7,263.2,935,265.9 C934.6,268.2,935.6,263.6,935,265.9z"></path>
                                </g>
                                <path fill="#003087" d="M381.2,239c2.9-0.5,6-0.1,8.9-0.1c3.1,0,6.3,0,9.4,0c3.9,0,4.1,4.6,4.7,7.4c0.6,2.7,1,5.5,1.5,8.2 c1.8,9.9,3.6,19.8,5.6,29.8c0.3,1.9,1,3.6,2.2,5.2c1.1-1.3,2.3-2.6,2.6-4.2c0.5-1.6,0.8-3.1,1.3-4.7c0.6-2.3,1.1-4.6,1.7-6.8 c1.3-5.2,2.6-10.4,3.9-15.6c1.3-5,2.5-10,3.9-14.9c0.6-2.2,1.4-4.4,4.1-4.4c2.4,0,4.7,0,7.1,0c3.4,0,6.8,0,10.3,0 c1.6,0,3.5-0.2,4.8,1c1,1,1.1,2.5,1.4,3.9c0.2,1.7,0.6,3.4,0.8,5.1c0.3,2.4,0.8,4.9,1.1,7.3c0.7,4.3,1.4,8.8,2.1,13.1 c0.9,5.7,1.6,11.5,2.6,17.1c0.1,0.6,0.2,1,0.6,1.5c0.2,0.6,0.6,1,0.9,1.5s0.3,0.6,0.8,0.2c1.7-1.5,2.4-3.4,3.1-5.5 c0.7-2.4,1.3-4.8,1.9-7.2c1.3-4.8,2.6-9.5,3.9-14.3c1.4-5.2,2.7-10.5,4.2-15.6c0.5-1.6,0.9-3.2,1.4-4.8c0.3-1,0.7-1.8,1.6-2.5 c1.5-1.3,3.8-0.8,5.6-0.8c2.1,0,4,0,6,0.1c2.4,0,4.8,0,7.3-0.1c1.6,0,5.8-0.6,4.9,2.5c-1.5,4.8-3,9.6-4.6,14.4 c-3.2,9.8-6.3,19.6-9.5,29.4c-3.2,9.7-6.3,19.5-9.5,29.2c-0.8,2.4-2.2,4-4.9,4s-5.5,0-8.2,0c-5.4,0-10.7,0-16.1-0.1 c-1.1,0-2.1-0.2-3-1c-0.9-0.9-1-2.1-1.3-3.3c-0.5-2.9-1-5.7-1.5-8.6c-0.9-5.5-1.8-11.1-2.7-16.5c-0.8-4.7-1.6-9.5-2.4-14.1 c-0.2-1-0.3-2.2-0.6-3.2c-0.2-1.1-0.2-2.7-1.4-3.4c-1.9-1.1-2.4,3.3-2.6,4.4c-2.4,11.9-4.8,23.8-7.2,35.7c-0.3,1.8-0.7,3.6-1.1,5.5 c-0.3,1.7-0.8,3.4-2.5,4.3c-1.6,0.8-4.2,0.5-5.9,0.5c-3.4,0-6.8,0-10.3,0s-6.7,0-10.1,0c-1.3,0-2.9,0.2-4.1-0.2 c-2.3-0.8-2.5-3.3-2.9-5.5c-0.5-2.7-0.9-5.4-1.4-8.1c-1.6-10.1-3.3-20.2-4.9-30.3c-1.7-10.9-3.5-21.9-5.1-32.8 C379.7,240.4,379.8,239.2,381.2,239z"></path>
                                <g>
                                    <path fill="#003087" d="M802.5,240.7c-7.9-3-16.9-2.2-24.6,0.7c-9,3.3-17,9.6-22,17.8c-5.6,9.2-8,21-7.3,31.6 c0.7,9.6,4.2,19.4,12.2,25.2c17.6,12.9,41.6-0.3,51.9-16.3c5.5-8.7,8.1-19.4,7.6-29.5c-0.3-9.2-3.3-18.9-10.6-25.1 C807.7,243.2,805.2,241.7,802.5,240.7C786.8,234.8,821.1,247.8,802.5,240.7z M800.1,287.6c-4.2,8.6-14,15.4-23.8,13.5 c-10.7-2.1-12.3-14.6-9.9-23.5c2.6-9.8,10.8-18.4,21.3-18.9c4.4-0.2,9,1.3,12,4.8c3.3,3.9,4.1,9.2,3.4,14.1 C802.9,281,801.7,284.4,800.1,287.6C794.7,298.9,805.8,276,800.1,287.6z"></path>
                                </g>
                            </svg>